<svg width="288" height="288" xmlns="http://www.w3.org/2000/svg" xmlns:xlink="http://www.w3.org/1999/xlink" xml:space="preserve" overflow="hidden"><g transform="translate(-476 -204)"><path d="M652.583 254.625C663.399 254.657 672.347 263.051 673.07 273.843L673.352 278.136 677.507 279.249 678.026 279.393C688.188 282.436 693.967 293.133 690.941 303.3L689.495 308.16 694.043 310.398C694.643 310.698 695.258 311.028 695.843 311.382 707.405 318.36 711.138 333.379 704.189 344.958L701.729 349.044 705.155 352.362C715.404 362.307 715.65 378.677 705.705 388.925 703.47 391.229 700.825 393.096 697.907 394.431L694.403 396.033 694.403 400.155C694.443 412.949 684.104 423.353 671.309 423.393 669.603 423.398 667.902 423.215 666.236 422.847L660.872 421.671 659.225 426.9C656.922 434.242 649.103 438.326 641.761 436.022 635.953 434.2 632 428.817 632 422.73L632 275.214C632.007 264.385 640.396 255.41 651.2 254.673 651.659 254.64 652.118 254.625 652.571 254.625M652.571 248.625C651.987 248.625 651.399 248.645 650.807 248.685 636.836 249.609 625.982 261.219 626 275.22L626 422.73C626.002 433.738 634.924 442.66 645.932 442.662L645.932 442.662C654.641 442.661 662.342 437.009 664.952 428.7 680.706 432.15 696.275 422.174 699.724 406.42 700.176 404.356 700.403 402.25 700.4 400.137L700.4 399.873C716.398 392.555 723.434 373.653 716.116 357.655 714.469 354.056 712.166 350.794 709.325 348.039 718 333.624 713.349 314.906 698.936 306.228 698.204 305.79 697.454 305.379 696.689 305.001 700.669 291.664 693.084 277.627 679.747 273.647 679.744 273.646 679.742 273.646 679.739 273.645 679.511 273.576 679.283 273.513 679.055 273.453 678.142 259.498 666.565 248.641 652.58 248.625Z"/><path d="M587.432 254.637C598.79 254.655 607.99 263.862 608 275.22L608 422.718C607.989 430.411 601.744 436.638 594.052 436.628 587.98 436.619 582.613 432.679 580.787 426.888L579.137 421.662 573.782 422.835C572.141 423.194 570.467 423.376 568.787 423.375 555.975 423.368 545.593 412.976 545.6 400.164 545.6 400.155 545.6 400.146 545.6 400.137L545.6 396.018 542.093 394.416C529.108 388.488 523.388 373.156 529.316 360.172 530.653 357.242 532.527 354.588 534.839 352.347L538.262 349.029 535.802 344.946C535.448 344.346 535.115 343.746 534.812 343.146 528.856 331.02 533.844 316.362 545.96 310.386L550.502 308.148 549.059 303.3C549.008 303.126 548.957 302.952 548.909 302.772 546.182 292.527 552.259 282.007 562.496 279.252L566.651 278.142 566.933 273.852C567.671 263.065 576.62 254.684 587.432 254.652M587.432 248.652 587.432 248.652C573.449 248.66 561.867 259.509 560.948 273.462 547.503 277.057 539.518 290.871 543.113 304.316 543.114 304.32 543.115 304.325 543.116 304.329 543.176 304.56 543.242 304.788 543.311 305.016 528.223 312.451 522.016 330.707 529.445 345.798 529.823 346.57 530.234 347.322 530.678 348.054 518.052 360.298 517.743 380.459 529.987 393.084 532.742 395.925 536.002 398.227 539.6 399.873L539.6 400.137C539.582 416.265 552.641 429.355 568.769 429.375L568.805 429.375C570.906 429.375 573.001 429.147 575.054 428.697 578.346 439.2 589.528 445.046 600.031 441.754 608.345 439.148 614.003 431.443 614 422.73L614 275.22C614.003 260.543 602.109 248.642 587.432 248.637Z"/><path d="M533.381 268.989C532.594 268.986 531.84 268.673 531.281 268.119L517.037 253.986C515.841 252.839 515.801 250.94 516.948 249.744 518.094 248.548 519.993 248.508 521.189 249.655 521.214 249.678 521.238 249.702 521.261 249.726L535.505 263.859C536.681 265.026 536.689 266.925 535.522 268.102 534.962 268.667 534.201 268.986 533.405 268.989Z"/><path d="M513.962 307.368C513.56 307.367 513.162 307.286 512.792 307.128L492.338 298.446C490.822 297.778 490.134 296.007 490.802 294.491 491.457 293.004 493.177 292.309 494.681 292.923L515.135 301.605C516.661 302.25 517.375 304.011 516.729 305.537 516.259 306.648 515.169 307.37 513.962 307.368Z"/><path d="M504.62 349.638 483.344 349.638C481.687 349.638 480.344 348.295 480.344 346.638 480.344 344.981 481.687 343.638 483.344 343.638L504.62 343.638C506.277 343.638 507.62 344.981 507.62 346.638 507.62 348.295 506.277 349.638 504.62 349.638Z"/><path d="M488.969 402.195C487.312 402.197 485.968 400.854 485.967 399.197 485.966 398.016 486.658 396.944 487.736 396.459L505.172 388.608C506.671 387.903 508.458 388.548 509.163 390.047 509.868 391.547 509.224 393.334 507.724 394.038 507.696 394.052 507.667 394.064 507.638 394.077L490.202 401.928C489.815 402.104 489.394 402.194 488.969 402.195Z"/><path d="M518.099 445.269C516.442 445.268 515.1 443.923 515.101 442.266 515.102 441.448 515.437 440.665 516.029 440.1L529.445 427.296C530.644 426.148 532.545 426.19 533.693 427.389 534.841 428.588 534.799 430.49 533.6 431.637L520.184 444.441C519.622 444.976 518.875 445.273 518.099 445.269Z"/><path d="M578.492 345.393 575.192 341.898C574.673 341.871 574.154 341.817 573.638 341.745L569.738 344.502 562.7 340.713 562.877 335.877C562.535 335.493 562.211 335.093 561.905 334.677L557.189 333.879 554.882 326.25 558.374 322.95C558.401 322.434 558.452 321.924 558.524 321.414L555.716 317.478 559.544 310.428 564.344 310.572C564.737 310.23 565.145 309.9 565.568 309.591L566.384 304.887 574.001 302.58 577.301 306.048C577.823 306.078 578.342 306.129 578.861 306.204L582.779 303.456 589.802 307.233 589.655 312.033C590.001 312.421 590.328 312.821 590.636 313.233L595.355 314.034 597.662 321.669 594.161 324.969C594.128 325.506 594.071 326.04 593.993 326.571L596.744 330.471 592.934 337.5 588.155 337.359C587.755 337.709 587.349 338.042 586.937 338.358L586.1 343.086ZM577.793 335.895 580.313 338.571 580.838 338.415 581.468 334.785 582.593 334.074C583.404 333.56 584.148 332.949 584.81 332.253L585.734 331.284 589.406 331.395 589.67 330.906 587.546 327.906 587.846 326.589C588.064 325.644 588.165 324.676 588.146 323.706L588.125 322.38 590.795 319.869 590.639 319.35 587.009 318.75 586.295 317.613C585.787 316.804 585.182 316.06 584.495 315.396L583.532 314.472 583.646 310.782 583.151 310.515 580.151 312.615 578.858 312.315C577.923 312.099 576.964 312.005 576.005 312.033L574.679 312.06 572.165 309.405 571.637 309.564 571.004 313.215 569.852 313.926C569.038 314.427 568.29 315.027 567.623 315.711L566.702 316.656 563.036 316.548 562.76 317.055 564.899 320.055 564.599 321.357C564.392 322.294 564.299 323.253 564.32 324.213L564.35 325.548 561.671 328.071 561.827 328.587 565.451 329.187 566.168 330.324C566.675 331.134 567.279 331.878 567.968 332.541L568.937 333.474 568.829 337.2 569.312 337.461 572.312 335.346 573.611 335.646C574.543 335.865 575.501 335.961 576.458 335.931Z"/><path d="M576.26 318.492C575.724 318.492 575.192 318.571 574.679 318.726L574.679 318.726C571.778 319.601 570.136 322.663 571.011 325.564 571.887 328.466 574.948 330.107 577.85 329.232 580.751 328.357 582.393 325.295 581.517 322.394 580.818 320.077 578.683 318.491 576.263 318.492Z"/><path d="M570.2 389.682 566.9 386.187C566.381 386.157 565.862 386.106 565.346 386.031L561.446 388.791 554.411 384.999 554.588 380.166C554.243 379.782 553.919 379.38 553.61 378.966L548.897 378.168 546.59 370.536 550.082 367.236C550.109 366.72 550.16 366.207 550.232 365.697L547.4 361.776 551.231 354.729 556.031 354.873C556.421 354.528 556.832 354.201 557.252 353.892L558.071 349.185 565.685 346.878 568.97 350.346C569.492 350.376 570.011 350.43 570.53 350.502L574.448 347.754 581.468 351.534 581.324 356.334C581.67 356.722 581.997 357.122 582.305 357.534L587.024 358.332 589.331 365.967 585.83 369.267C585.796 369.805 585.739 370.339 585.659 370.869L588.41 374.769 584.63 381.798 579.851 381.654C579.461 382.005 579.053 382.338 578.633 382.653L577.811 387.378ZM569.498 380.181 572.018 382.86 572.54 382.701 573.17 379.071 574.295 378.36C575.107 377.845 575.854 377.234 576.518 376.539L577.442 375.573 581.111 375.684 581.375 375.192 579.251 372.192 579.551 370.875C579.769 369.93 579.87 368.962 579.851 367.992L579.83 366.669 582.5 364.155 582.344 363.636 578.714 363.036 578 361.887C577.494 361.077 576.889 360.334 576.2 359.673L575.24 358.749 575.351 355.059 574.856 354.792 571.856 356.892 570.563 356.592C569.629 356.374 568.671 356.278 567.713 356.307L566.384 356.334 563.873 353.679 563.342 353.841 562.709 357.486 561.563 358.197C560.746 358.704 559.993 359.308 559.322 359.997L558.401 360.936 554.744 360.828 554.465 361.335 556.604 364.335 556.304 365.637C556.098 366.575 556.003 367.533 556.022 368.493L556.055 369.828 553.376 372.354 553.532 372.87 557.156 373.47 557.873 374.607C558.381 375.415 558.985 376.159 559.673 376.821L560.642 377.754 560.507 381.468 560.987 381.726 563.987 379.626 565.286 379.926C566.218 380.147 567.175 380.243 568.133 380.211Z"/><path d="M567.956 362.778C567.421 362.78 566.888 362.858 566.375 363.012L566.375 363.012C563.481 363.892 561.848 366.953 562.728 369.847 563.608 372.741 566.668 374.374 569.563 373.494 572.457 372.614 574.09 369.553 573.21 366.659 572.507 364.349 570.374 362.771 567.959 362.775Z"/></g></svg>